<svg
    xmlns="http://www.w3.org/2000/svg"
    xmlns:xlink="http://www.w3.org/1999/xlink"
    version="1.1"
    id="Capa_1"
    x="0px"
    y="0px"
    width="59.563px"
    height="59.563px"
    viewBox="0 0 59.563 59.563"
    style="enable-background:new 0 0 59.563 59.563;"
    xml:space="preserve">
    <g>
        <path
            d="M55.574,14.891c-1.66-2.88-5.174-4.402-10.157-4.402c-1.487,0-3.073,0.151-4.72,0.417C38.146,4.216,34.241,0,29.785,0   c-4.458,0-8.367,4.214-10.917,10.903c-1.642-0.264-3.231-0.415-4.718-0.415c-4.985,0-8.498,1.522-10.164,4.402   c-2.226,3.858-0.535,9.343,3.979,14.891c-4.516,5.548-6.205,11.031-3.979,14.891c1.666,2.879,5.178,4.403,10.164,4.403   c1.487,0,3.071-0.151,4.718-0.416c2.55,6.688,6.46,10.904,10.917,10.904c4.457,0,8.362-4.216,10.913-10.904   c1.646,0.265,3.229,0.416,4.717,0.416c4.991,0,8.504-1.524,10.165-4.403c2.226-3.854,0.533-9.343-3.974-14.891   C56.11,24.234,57.801,18.749,55.574,14.891z M45.417,12.824c4.039,0,6.932,1.148,8.132,3.234c1.672,2.891,0.146,7.299-3.526,11.908   c-1.889-2.042-4.146-4.062-6.711-5.996c-0.393-3.189-1.018-6.165-1.839-8.819C42.846,12.952,44.174,12.824,45.417,12.824z    M35.624,39.898c-1.938,1.119-3.896,2.109-5.839,2.972c-1.944-0.862-3.901-1.853-5.84-2.972c-1.948-1.125-3.767-2.332-5.48-3.584   c-0.229-2.104-0.364-4.288-0.364-6.535c0-2.245,0.138-4.427,0.364-6.528c1.71-1.252,3.537-2.462,5.48-3.586   c1.939-1.119,3.896-2.109,5.84-2.974c1.943,0.865,3.901,1.854,5.839,2.974c1.943,1.124,3.766,2.333,5.479,3.583   c0.228,2.104,0.36,4.286,0.36,6.531c0,2.244-0.135,4.428-0.36,6.533C39.39,37.566,37.572,38.773,35.624,39.898z M40.67,39.48   c-0.388,2.327-0.915,4.51-1.542,6.496c-2.066-0.446-4.223-1.076-6.424-1.909c1.369-0.663,2.732-1.363,4.088-2.146   C38.146,41.137,39.429,40.315,40.67,39.48z M26.86,44.067c-2.198,0.833-4.352,1.463-6.419,1.909   c-0.633-1.988-1.154-4.169-1.542-6.496c1.241,0.833,2.522,1.656,3.877,2.437C24.132,42.701,25.496,43.404,26.86,44.067z    M15.943,34.357c-1.82-1.501-3.445-3.036-4.85-4.574c1.406-1.54,3.029-3.076,4.85-4.574c-0.106,1.491-0.178,3.009-0.178,4.571   S15.837,32.865,15.943,34.357z M18.899,20.086c0.388-2.332,0.909-4.511,1.542-6.501c2.067,0.448,4.221,1.079,6.419,1.91   c-1.364,0.664-2.729,1.366-4.083,2.146C21.422,18.425,20.14,19.248,18.899,20.086z M32.704,15.495   c2.201-0.832,4.357-1.462,6.424-1.91c0.629,1.988,1.154,4.169,1.542,6.501c-1.241-0.836-2.523-1.658-3.878-2.441   C35.437,16.861,34.073,16.159,32.704,15.495z M43.626,25.208c1.82,1.498,3.444,3.036,4.85,4.573   c-1.407,1.54-3.029,3.075-4.85,4.574c0.104-1.494,0.174-3.014,0.174-4.576S43.73,26.701,43.626,25.208z M29.785,2.336   c3.345,0,6.405,3.528,8.558,9.033c-2.753,0.618-5.634,1.562-8.558,2.798c-2.924-1.235-5.807-2.182-8.559-2.8   C23.375,5.864,26.439,2.336,29.785,2.336z M6.016,16.059c1.205-2.086,4.092-3.234,8.133-3.234c1.242,0,2.574,0.127,3.943,0.328   c-0.829,2.654-1.446,5.63-1.839,8.819c-2.565,1.933-4.825,3.954-6.71,5.996C5.866,23.358,4.345,18.95,6.016,16.059z M14.151,46.739   c-4.039,0-6.931-1.15-8.131-3.235c-1.673-2.892-0.147-7.299,3.526-11.906c1.888,2.039,4.144,4.06,6.711,5.992   c0.392,3.188,1.016,6.165,1.838,8.816C16.723,46.611,15.396,46.739,14.151,46.739z M29.785,57.228   c-3.345,0-6.405-3.529-8.559-9.033c2.752-0.618,5.634-1.562,8.559-2.797c2.924,1.234,5.805,2.181,8.558,2.797   C36.189,53.698,33.13,57.228,29.785,57.228z M53.553,43.504c-1.204,2.085-4.092,3.235-8.139,3.235   c-1.236,0-2.568-0.128-3.937-0.329c0.825-2.655,1.446-5.627,1.838-8.813c2.564-1.935,4.825-3.956,6.711-5.999   C53.704,36.205,55.223,40.612,53.553,43.504z M35.332,29.781c0,3.066-2.48,5.548-5.547,5.548s-5.548-2.481-5.548-5.548   s2.481-5.547,5.548-5.547S35.332,26.717,35.332,29.781z"
            style="fill: rgb(255, 255, 255);"></path>
    </g>
</svg>
